<svg version="1.1" id="Layer_1" xmlns="http://www.w3.org/2000/svg" xmlns:xlink="http://www.w3.org/1999/xlink" x="0px" y="0px"
	 width="100%" viewBox="0 0 496 496" enable-background="new 0 0 496 496" xml:space="preserve">
<path fill="#000000" opacity="1.000000" stroke="none" 
	d="
M201.345627,327.720581 
	C181.854141,313.142731 169.646469,294.272186 164.566696,270.824982 
	C164.171661,269.001587 162.911957,266.706848 165.966690,265.926178 
	C169.121170,265.119995 169.866669,267.193909 170.481018,269.754089 
	C177.461594,298.844849 194.350098,319.873322 221.719574,332.239502 
	C254.725800,347.152496 295.486633,339.018951 320.715393,312.661560 
	C332.301849,300.556763 339.827637,286.325623 343.518738,270.040741 
	C344.068024,267.617310 344.342743,265.230530 347.703949,265.850403 
	C351.210632,266.497162 349.899170,268.964020 349.431793,270.941162 
	C340.733124,307.740356 318.161591,331.920380 281.963593,342.180237 
	C253.297760,350.305206 226.225037,345.016693 201.345627,327.720581 
z"/>
<path fill="#000000" opacity="1.000000" stroke="none" 
	d="
M319.456543,357.540588 
	C307.708160,364.458771 295.436249,369.013916 282.473236,371.721191 
	C280.371613,372.160126 277.689545,373.597595 276.725891,370.115326 
	C275.661926,366.270508 278.774780,366.294556 281.124603,365.719604 
	C330.791931,353.567017 361.127289,322.331757 372.294128,272.627594 
	C375.111084,260.089172 374.705719,247.192627 373.312927,234.399414 
	C372.578461,227.652786 372.958405,220.920578 373.016846,213.661972 
	C378.769409,218.236786 381.673096,248.802322 379.972198,262.913849 
	C375.017914,304.017426 355.363647,335.768524 319.456543,357.540588 
z"/>
<path fill="#000000" opacity="1.000000" stroke="none" 
	d="
M232.186279,365.611206 
	C233.076416,365.759460 233.580750,365.804565 234.056702,365.945496 
	C236.188187,366.576782 238.302460,367.102417 237.470459,370.250610 
	C236.661133,373.313080 234.441528,372.420471 232.659622,372.036224 
	C219.070999,369.105957 206.086090,364.547852 194.150970,357.284546 
	C161.342621,337.318542 141.823410,308.256348 135.192490,270.551880 
	C132.061279,252.747238 133.372437,235.077789 138.096466,217.654205 
	C138.395554,216.551071 138.931229,215.504837 139.437103,214.471405 
	C139.533340,214.274811 140.008270,214.263580 141.004318,213.942581 
	C141.004318,220.851898 141.790527,227.656723 140.882065,234.227234 
	C132.292221,296.353333 172.479645,351.890015 230.336273,365.180756 
	C230.822754,365.292480 231.303802,365.427856 232.186279,365.611206 
z"/>
<path fill="#000000" opacity="1.000000" stroke="none" 
	d="
M312.086334,173.836365 
	C318.531891,178.555588 324.231567,183.526520 329.181610,189.946747 
	C325.083344,192.135101 322.462006,190.953033 319.853271,188.392776 
	C307.045990,175.823547 291.937592,167.366104 274.215729,164.208679 
	C244.217270,158.863998 217.808609,166.330063 195.501495,187.331100 
	C192.591202,190.070984 189.890701,192.517563 185.541611,190.422348 
	C204.364243,161.399826 263.008606,139.673645 312.086334,173.836365 
z"/>
<path fill="#000000" opacity="1.000000" stroke="none" 
	d="
M176.937561,220.568268 
	C180.261703,223.962082 181.280151,227.648682 179.703979,231.779785 
	C178.009277,236.221558 174.071213,237.551987 169.828262,238.275772 
	C169.665543,238.303543 169.497070,238.307617 169.331390,238.306656 
	C149.221115,238.188354 153.473206,241.255096 152.979645,223.464203 
	C152.841553,218.486847 153.019180,213.501419 152.989716,208.520081 
	C152.971497,205.441422 154.349640,203.926849 157.495895,203.963150 
	C161.641678,204.011002 165.773773,203.837631 169.909866,204.543320 
	C178.117645,205.943710 180.709442,210.388931 177.533615,217.949280 
	C177.220734,218.694122 177.027191,219.489105 176.937561,220.568268 
M165.614807,225.116425 
	C163.064011,225.557526 163.067307,227.385117 163.593262,229.225708 
	C164.064056,230.873215 165.596893,230.745209 166.880524,230.479935 
	C168.335983,230.179153 169.955704,229.631943 170.078552,227.896973 
	C170.261337,225.315430 168.157669,225.296997 165.614807,225.116425 
M165.501785,212.418610 
	C163.064072,212.734955 162.825012,214.377075 163.922546,215.936401 
	C164.925369,217.361206 166.792038,217.094025 167.811752,215.856552 
	C169.382706,213.950134 168.146942,212.911423 165.501785,212.418610 
z"/>
<path fill="#000000" opacity="1.000000" stroke="none" 
	d="
M288.001099,292.680176 
	C285.860077,291.199158 284.219086,292.349579 282.476746,292.722687 
	C277.967773,293.688080 276.152130,292.345490 276.101318,287.840302 
	C276.003784,279.196503 276.116638,270.550537 276.065491,261.905914 
	C276.042328,257.996796 277.134613,255.690872 281.764221,255.806946 
	C286.157593,255.917084 286.546539,258.310608 286.367310,261.661041 
	C286.298798,262.942078 286.012299,264.327148 286.878571,265.499237 
	C299.224121,266.279449 303.333130,270.479645 302.237793,281.166046 
	C301.361084,289.719086 296.337097,293.944794 288.001099,292.680176 
M286.829437,275.651672 
	C285.979980,277.710266 286.316772,279.862061 286.427521,281.970703 
	C286.517731,283.688049 287.535370,284.995575 289.318939,284.282166 
	C292.510529,283.005554 291.888275,280.004272 291.680908,277.464294 
	C291.459900,274.757263 290.020782,273.592346 286.829437,275.651672 
z"/>
<path fill="#000000" opacity="1.000000" stroke="none" 
	d="
M234.016815,273.893738 
	C240.763107,280.646362 239.044846,289.085022 230.572144,292.311371 
	C225.243958,294.340302 220.080292,293.392700 215.169968,290.913910 
	C213.504364,290.073090 210.904816,288.890717 212.556152,286.533264 
	C214.052383,284.397217 215.216705,280.671234 219.385147,282.558380 
	C221.813461,283.657684 224.227112,285.798584 227.310989,283.301575 
	C226.222443,280.442657 223.387955,280.372803 221.336823,279.381866 
	C216.589371,277.088226 212.565552,274.316467 212.787521,268.361481 
	C212.960892,263.710327 215.688431,260.663300 219.853119,258.970673 
	C225.396744,256.717590 230.609512,257.771667 235.439972,261.058441 
	C236.930725,262.072815 237.176331,263.464569 235.928375,264.880585 
	C234.490524,266.512085 233.777863,269.347107 230.608246,268.257233 
	C228.490417,267.529053 226.388290,266.151093 223.939178,268.234222 
	C226.308578,271.844849 230.811905,271.381866 234.016815,273.893738 
z"/>
<path fill="#000000" opacity="1.000000" stroke="none" 
	d="
M160.361755,184.364838 
	C157.821014,187.977066 156.519577,193.072586 150.688995,190.457977 
	C149.873566,188.762360 150.889038,187.703812 151.568542,186.618530 
	C170.462082,156.442245 197.399750,137.706879 232.123978,130.105118 
	C234.134949,129.664871 236.526123,128.801727 237.338379,132.022812 
	C238.235840,135.581818 235.603073,135.762970 233.335526,136.241379 
	C202.829865,142.677490 178.626175,158.697266 160.361755,184.364838 
z"/>
<path fill="#000000" opacity="1.000000" stroke="none" 
	d="
M363.640839,190.125977 
	C359.852478,192.202332 357.688629,190.529892 355.711243,187.490234 
	C339.627258,162.765945 317.269226,146.468002 289.011475,138.203415 
	C286.308167,137.412796 283.518494,136.920639 280.777039,136.256470 
	C278.529999,135.712097 275.878357,135.513367 276.666779,132.018219 
	C277.410065,128.723221 279.835693,129.719299 281.843842,130.140198 
	C304.670685,134.924637 324.800690,144.996506 341.753815,161.111404 
	C350.579315,169.500549 358.579407,178.576813 363.640839,190.125977 
z"/>
<path fill="#000000" opacity="1.000000" stroke="none" 
	d="
M348.791931,219.658112 
	C345.085449,220.687607 341.466095,222.623672 339.687347,217.226196 
	C339.109039,215.471466 339.469177,214.529999 340.999573,213.534851 
	C350.341034,207.460556 360.718781,212.049789 361.891113,222.995728 
	C362.296509,226.781219 361.969025,230.641846 362.048859,234.466644 
	C362.113190,237.549438 360.467438,238.732254 357.659576,238.333374 
	C354.042236,237.819504 350.629120,238.153763 347.013733,238.955368 
	C343.029724,239.838699 340.055878,237.446259 338.583313,233.529663 
	C336.969971,229.238602 338.576965,225.929947 342.105042,223.645416 
	C344.297150,222.225922 346.944763,221.510956 349.378632,220.458313 
	C349.452515,220.426376 349.480499,220.129333 349.424988,220.001373 
	C349.367401,219.868546 349.182159,219.791046 348.791931,219.658112 
z"/>
<path fill="#000000" opacity="1.000000" stroke="none" 
	d="
M190.462860,237.786499 
	C183.639389,230.132782 185.863937,225.492447 198.544708,220.192703 
	C197.036377,218.866043 195.588394,220.003372 194.479614,220.510254 
	C190.893112,222.149826 189.736160,219.885483 188.519730,217.320419 
	C187.017242,214.152161 189.604980,213.588165 191.463898,212.760223 
	C202.580673,207.808899 210.309189,212.768341 210.394440,224.844376 
	C210.403839,226.176041 210.396698,227.507858 210.395065,228.839600 
	C210.384232,237.659790 210.376297,237.451706 201.346390,237.787796 
	C197.826752,237.918793 194.387360,240.407104 190.462860,237.786499 
z"/>
<path fill="#000000" opacity="1.000000" stroke="none" 
	d="
M262.307007,266.491943 
	C267.946411,269.330353 268.684082,274.208771 268.633209,279.354584 
	C268.599121,282.801331 266.102692,283.269928 263.392792,283.036560 
	C260.980408,282.828766 258.544342,282.091522 256.272736,283.886780 
	C257.861328,286.000061 259.835602,285.494354 261.676636,284.793610 
	C265.081909,283.497498 266.235535,285.806763 267.114502,288.192230 
	C268.157410,291.022675 265.639374,291.503723 263.901703,292.217468 
	C257.749664,294.744446 250.742065,293.098724 247.147766,288.399475 
	C243.492004,283.619843 243.267441,275.975525 246.638474,271.062622 
	C250.116196,265.994232 255.636688,264.288666 262.307007,266.491943 
z"/>
<path fill="#000000" opacity="1.000000" stroke="none" 
	d="
M259.787842,223.248322 
	C263.672485,225.654953 264.088715,229.098999 263.218567,232.658630 
	C262.398285,236.014236 259.748047,237.656754 256.466339,238.612015 
	C253.070175,239.600601 249.823166,239.339462 246.724747,237.963074 
	C244.822372,237.117996 241.478287,236.791260 242.820831,233.423828 
	C243.982803,230.509247 245.914703,228.077087 249.711823,230.406464 
	C250.351288,230.798752 251.279694,230.720016 252.881744,230.999969 
	C251.402023,228.659653 249.320541,228.431030 247.865677,227.423248 
	C244.780685,225.286316 242.674835,222.710205 243.308472,218.705795 
	C243.969055,214.531128 246.736221,212.526413 250.629303,211.525452 
	C253.522995,210.781448 256.338135,211.134293 258.957428,212.132141 
	C260.858582,212.856415 264.233032,213.184036 262.921143,216.589600 
	C261.886444,219.275513 260.135254,221.723572 256.456787,220.056763 
	C255.882599,219.796585 255.208008,219.757996 254.300217,220.133667 
	C256.023804,221.107712 257.747406,222.081772 259.787842,223.248322 
z"/>
<path fill="#000000" opacity="1.000000" stroke="none" 
	d="
M292.424622,237.983841 
	C290.475494,236.676651 287.484467,236.656708 288.441345,233.451233 
	C289.186523,230.954971 291.416992,230.329880 298.768738,230.575806 
	C297.652588,228.697281 295.715027,228.572052 294.324677,227.725189 
	C290.990051,225.694077 288.399323,223.144028 289.003540,218.927231 
	C289.622467,214.607590 292.597412,212.450470 296.709167,211.475983 
	C299.261810,210.871002 301.769470,211.051270 304.072662,211.946381 
	C306.141083,212.750229 309.708923,213.002274 308.574524,216.542297 
	C307.637482,219.466507 305.663300,221.968033 301.805023,219.994690 
	C301.409546,219.792419 300.875336,219.861389 299.286133,219.668930 
	C301.683380,221.025955 303.136749,221.919540 304.651855,222.692139 
	C308.192108,224.497406 309.752502,227.364212 309.264557,231.276901 
	C308.799072,235.009354 306.392822,237.121445 303.032471,238.342560 
	C299.594238,239.591980 296.178741,239.494659 292.424622,237.983841 
z"/>
<path fill="#000000" opacity="1.000000" stroke="none" 
	d="
M329.257385,220.243240 
	C325.618042,224.510941 326.051727,228.735687 330.226410,230.770813 
	C332.984650,232.115433 332.786987,234.561966 332.775391,236.682053 
	C332.764069,238.754669 330.457184,238.789856 328.911072,239.070694 
	C321.916565,240.341125 317.266235,236.329758 316.693237,228.773529 
	C316.431549,225.322952 317.726898,221.606049 313.969788,218.799316 
	C312.622803,217.793076 313.015808,213.693985 314.124481,213.323730 
	C318.526184,211.853638 316.386322,203.731567 322.988342,205.005875 
	C324.297516,205.258560 326.421997,205.293869 326.265106,206.614731 
	C325.637756,211.896606 334.991364,211.777267 332.192139,218.042465 
	C331.639008,219.280502 330.839264,219.843414 329.257385,220.243240 
z"/>
<path fill="#000000" opacity="1.000000" stroke="none" 
	d="
M283.986298,312.178223 
	C262.645874,321.063141 242.430496,319.620544 222.987045,307.829315 
	C226.949249,306.382812 230.910110,306.118256 234.843155,307.590881 
	C249.800110,313.191101 264.704468,313.070587 279.649017,307.470306 
	C283.392609,306.067535 287.292603,306.354950 291.688812,307.323639 
	C289.610504,310.228271 286.638977,310.618378 283.986298,312.178223 
z"/>
<path fill="#000000" opacity="1.000000" stroke="none" 
	d="
M226.070282,211.987915 
	C228.072723,213.850540 229.589783,212.893127 231.346252,212.148956 
	C233.729492,211.139236 237.034546,209.818832 237.940140,213.377335 
	C238.629288,216.085327 238.701767,219.890411 233.964951,220.416611 
	C230.588013,220.791748 229.231995,223.118759 229.242416,226.371109 
	C229.248795,228.364990 229.238190,230.359222 229.208298,232.352890 
	C229.121597,238.135422 227.680328,239.242264 221.922653,238.358505 
	C219.895279,238.047318 218.905090,237.080185 218.896042,235.146088 
	C218.864990,228.500656 218.734268,221.849594 218.955490,215.211136 
	C219.117188,210.359055 222.927017,211.959366 226.070282,211.987915 
z"/>
<path fill="#000000" opacity="1.000000" stroke="none" 
	d="
M281.052734,222.044250 
	C281.031952,226.528290 280.981140,230.522217 280.998779,234.515823 
	C281.016266,238.476959 278.325836,238.377502 275.511810,238.400864 
	C272.659515,238.424530 270.639893,237.894150 270.712830,234.363373 
	C270.839966,228.208191 270.846436,222.047501 270.744690,215.891724 
	C270.681091,212.044037 273.046600,211.784546 275.989655,211.665817 
	C279.235321,211.534897 281.157410,212.480225 281.036011,216.062515 
	C280.974091,217.890717 281.042999,219.723343 281.052734,222.044250 
z"/>
<path fill="#000000" opacity="1.000000" stroke="none" 
	d="
M246.775772,191.099731 
	C241.278732,191.127289 236.257309,191.127289 230.225891,191.127289 
	C241.570129,182.439896 269.743652,181.853363 283.183929,190.450119 
	C270.682037,192.825043 258.853241,188.665253 246.775772,191.099731 
z"/>
<path fill="#000000" opacity="1.000000" stroke="none" 
	d="
M316.013489,265.058655 
	C316.782013,260.908356 317.438019,257.158997 318.096283,253.396866 
	C323.251160,251.924042 323.631989,252.206909 323.423676,257.077515 
	C322.988159,267.258698 319.377472,276.344574 313.990936,286.033661 
	C310.828735,277.982788 314.554260,271.841156 316.013489,265.058655 
z"/>
<path fill="#000000" opacity="1.000000" stroke="none" 
	d="
M191.083221,262.617096 
	C190.774750,259.892853 190.502167,257.584808 190.381119,255.268784 
	C190.299423,253.705460 191.135101,252.755142 192.759552,252.725296 
	C194.083069,252.700958 195.906265,252.599823 195.987030,254.260956 
	C196.455887,263.903412 201.977142,272.604004 201.147751,282.456451 
	C201.097412,283.054626 200.806549,283.632507 200.252472,285.451141 
	C194.988083,278.123444 192.971436,270.626526 191.083221,262.617096 
z"/>
<path fill="#000000" opacity="1.000000" stroke="none" 
	d="
M267.207336,253.739258 
	C266.650879,259.109131 262.032318,260.546997 258.600922,262.913116 
	C257.148743,263.914429 255.799057,261.731201 254.650009,260.613037 
	C253.352371,259.350311 253.443954,257.988586 254.555832,256.655945 
	C256.753906,254.021484 258.635712,251.079727 261.581635,249.169281 
	C264.113770,249.819977 265.341461,251.913452 267.207336,253.739258 
z"/>
<path fill="#000000" opacity="1.000000" stroke="none" 
	d="
M270.718018,204.993820 
	C271.203735,201.105789 273.379028,199.650391 276.664032,200.094070 
	C279.162964,200.431564 281.056580,201.875534 281.131531,204.665375 
	C281.211578,207.644348 279.299408,209.374985 276.667816,209.876434 
	C273.319275,210.514511 271.316284,208.748489 270.718018,204.993820 
z"/>
</svg>